<svg xmlns="http://www.w3.org/2000/svg" width="88.657" height="44.664" viewBox="0 0 88.657 44.664"><path d="M66.5,44.664a21.522,21.522,0,0,1-4.442-.469A22.857,22.857,0,0,1,57.8,42.842a21.826,21.826,0,0,1-5.381-3.31,22.5,22.5,0,0,1-4.234-4.689c-4.564,1.961-9.2,3.964-13.682,5.9l-.012.005-3.14,1.357a22.355,22.355,0,0,1-9.039,2.019h-.175a22.05,22.05,0,0,1-4.962-.572,23.377,23.377,0,0,1-4.717-1.644A22.161,22.161,0,0,1,7.55,38.662a21.808,21.808,0,0,1-3.874-4.425,22.548,22.548,0,0,1-2.7-5.677A21.047,21.047,0,0,1,0,22.356,21.374,21.374,0,0,1,.562,17.1a22.133,22.133,0,0,1,1.805-4.973,21.891,21.891,0,0,1,9.592-9.667c1-.479,1.822-.836,2.586-1.125a17.9,17.9,0,0,1,2.7-.8A21.573,21.573,0,0,1,22.031,0a22.007,22.007,0,0,1,6.684,1.038,22.5,22.5,0,0,1,5.476,2.6,21.855,21.855,0,0,1,4.573,3.975c.467.529.889,1.1,1.3,1.655v0c.133.18.271.367.408.549,6.2-2.666,11.415-4.91,16.692-7.2A23.239,23.239,0,0,1,63.614.738a21.533,21.533,0,0,1,2.9-.2,22.276,22.276,0,0,1,8.112,1.536,21.865,21.865,0,0,1,5.136,2.849,22.525,22.525,0,0,1,4.212,4.092,22.251,22.251,0,0,1,1.9,2.884,22.549,22.549,0,0,1,1.439,3.15,22.068,22.068,0,0,1,.933,3.332,20.982,20.982,0,0,1,.386,3.432,22.113,22.113,0,0,1-8.727,18.375,22.075,22.075,0,0,1-12.446,4.45C67.148,44.657,66.824,44.664,66.5,44.664Zm-5.343-24.67h0c1,2.251,2.072,4.725,3.37,7.786-1.188.525-2.4,1.045-3.578,1.548l0,0h0c-1.558.667-3.17,1.357-4.739,2.067a13.253,13.253,0,0,0,2.148,2.023,13.876,13.876,0,0,0,5.311,2.443,13.5,13.5,0,0,0,2.924.323,12.941,12.941,0,0,0,2.163-.181,13.077,13.077,0,0,0,2.457-.637,13.758,13.758,0,0,0,4.35-2.586A13.332,13.332,0,0,0,77.3,30.936a13.472,13.472,0,0,0,1.272-1.972,13.8,13.8,0,0,0,1.453-4.449,13.229,13.229,0,0,0,.132-2.342,13.617,13.617,0,0,0-6.141-10.91A13.8,13.8,0,0,0,70.45,9.608a13.464,13.464,0,0,0-3.889-.582,12.57,12.57,0,0,0-1.542.094,16.482,16.482,0,0,0-4.93,1.494c-10.773,4.654-21.567,9.3-32.6,14.056-1.142-2.582-2.275-5.2-3.367-7.776,1.349-.6,2.727-1.192,4.059-1.765,1.4-.6,2.851-1.226,4.268-1.858a13.82,13.82,0,0,0-3.506-2.917,13.441,13.441,0,0,0-4.269-1.61,12.957,12.957,0,0,0-2.582-.257,13.84,13.84,0,0,0-5.427,1.118,13.372,13.372,0,0,0-5.534,4.406A13.556,13.556,0,0,0,8.552,20.6a13.725,13.725,0,0,0-.022,2.488A13.9,13.9,0,0,0,9.8,27.865a13.485,13.485,0,0,0,6.307,6.381,13.687,13.687,0,0,0,8.823,1.093,19.414,19.414,0,0,0,3.779-1.349c.307-.134.623-.272.933-.4,5.819-2.5,11.728-5.054,17.442-7.521,4.611-1.991,9.379-4.05,14.074-6.072Z" transform="translate(0 0)" fill="#f5f5f9"/></svg>